<svg
  xmlns="http://www.w3.org/2000/svg"
  viewBox="0 0 512 512"
  role="img"
  aria-labelledby="title desc"
>
  <title id="title">Modern Tarot Logo</title>
  <desc id="desc">
    Simple modern tarot badge: triangle with stylized eye and four
    colored accents (blue, red, yellow, black/white).
  </desc>

  <!-- Background rounded -->
  <rect
    width="512"
    height="512"
    rx="128"
    fill="#ffffff"
    stroke="#000"
    stroke-width="6"
  />

  <g transform="translate(256,256)">
    <circle r="180" fill="none" stroke="#000000" stroke-width="6" />

    <circle cx="0" cy="-170" r="12" fill="#1e90ff" />
    <circle cx="140" cy="0" r="12" fill="#ff4d4d" />
    <circle cx="0" cy="170" r="12" fill="#ffd24d" />
    <circle cx="-140" cy="0" r="12" fill="#000000" />

    <rect
      x="-120"
      y="-120"
      width="240"
      height="240"
      rx="28"
      fill="#ffffff"
      stroke="#000"
      stroke-width="4"
    />

    <polygon
      points="0,-86 80,80 -80,80"
      fill="none"
      stroke="#000"
      stroke-width="6"
      stroke-linejoin="round"
    />

    <g transform="translate(0,6)">
      <path
        d="M-42,14 C-22,-10 22,-10 42,14 C22,34 -22,34 -42,14 Z"
        fill="#000"
      />
      <circle r="10" fill="#ffffff" />
      <circle cx="-4" cy="-2" r="3" fill="#ffd24d" opacity="0.95" />
    </g>

    <g stroke="#000" stroke-width="2" stroke-linecap="round" opacity="0.6">
      <line x1="0" y1="-160" x2="0" y2="-130" />
      <line x1="120" y1="-80" x2="95" y2="-60" />
      <line x1="120" y1="80" x2="95" y2="60" />
      <line x1="-120" y1="80" x2="-95" y2="60" />
      <line x1="-120" y1="-80" x2="-95" y2="-60" />
    </g>
  </g>
</svg>
